<svg width="26" height="26" viewBox="0 0 26 26" fill="none" xmlns="http://www.w3.org/2000/svg">
<g id="Group 96">
<path id="Vector" d="M25.9181 12.6296C25.9228 14.4627 25.4945 16.2711 24.6681 17.9073C23.6881 19.8681 22.1816 21.5173 20.3173 22.6702C18.453 23.8231 16.3045 24.4342 14.1125 24.4351C12.2794 24.4399 10.471 24.0116 8.83474 23.1851L0.918091 25.824L3.55698 17.9073C2.73049 16.2711 2.3022 14.4627 2.30698 12.6296C2.30783 10.4376 2.91894 8.28907 4.07186 6.42477C5.22479 4.56047 6.87399 3.05397 8.83474 2.07401C10.471 1.24753 12.2794 0.819235 14.1125 0.824014H14.807C17.7019 0.983725 20.4362 2.20562 22.4863 4.25576C24.5364 6.30589 25.7583 9.04018 25.9181 11.9351V12.6296Z" fill="#FF1616"/>
</g>
</svg>
