<svg width="31" height="31" viewBox="0 0 31 31" fill="none" xmlns="http://www.w3.org/2000/svg">
<g id="Group 94">
<g id="Group 93">
<path id="Vector" d="M11.623 29.0206C12.3382 29.0206 12.918 28.4408 12.918 27.7255C12.918 27.0102 12.3382 26.4304 11.623 26.4304C10.9077 26.4304 10.3279 27.0102 10.3279 27.7255C10.3279 28.4408 10.9077 29.0206 11.623 29.0206Z" stroke="black" stroke-width="2" stroke-linecap="round" stroke-linejoin="round"/>
<path id="Vector_2" d="M25.8689 29.0206C26.5842 29.0206 27.164 28.4408 27.164 27.7255C27.164 27.0102 26.5842 26.4304 25.8689 26.4304C25.1537 26.4304 24.5739 27.0102 24.5739 27.7255C24.5739 28.4408 25.1537 29.0206 25.8689 29.0206Z" stroke="black" stroke-width="2" stroke-linecap="round" stroke-linejoin="round"/>
<path id="Vector_3" d="M1.26233 1.82397H6.44266L9.91348 19.1651C10.0319 19.7614 10.3563 20.297 10.8298 20.6782C11.3033 21.0594 11.8959 21.2619 12.5036 21.2502H25.0918C25.6996 21.2619 26.2921 21.0594 26.7657 20.6782C27.2392 20.297 27.5636 19.7614 27.682 19.1651L29.7541 8.29939H7.73774" stroke="black" stroke-width="2" stroke-linecap="round" stroke-linejoin="round"/>
</g>
</g>
</svg>
