<svg width="24" height="29" viewBox="0 0 24 29" fill="none" xmlns="http://www.w3.org/2000/svg">
<path id="Vector" d="M0.900542 0.552091H11.6411C13.3122 0.514849 14.9703 0.852975 16.4934 1.54156C18.0165 2.23014 19.3657 3.25165 20.4417 4.53082C22.6878 7.39633 23.8515 10.9621 23.7281 14.601C23.7518 16.711 23.3746 18.8063 22.6164 20.7755C21.9254 22.571 20.7993 24.1668 19.3392 25.4195C18.2901 26.2893 17.0873 26.955 15.7931 27.382C14.3026 27.8611 12.7442 28.095 11.1788 28.0748H0.900513L0.900542 0.552091ZM10.7936 23.2622C11.8409 23.3515 12.8946 23.1914 13.8681 22.795C14.8417 22.3985 15.7074 21.7771 16.3945 20.9815C17.643 19.0984 18.2318 16.8545 18.0689 14.601C18.1842 12.2405 17.5601 9.90282 16.2837 7.91384C15.6773 7.07521 14.8726 6.39987 13.9414 5.94816C13.0103 5.49644 11.9817 5.28243 10.9477 5.32525H6.48272V23.2622H10.7936Z" fill="#231F20"/>
</svg>
