<svg width="20" height="22" viewBox="0 0 20 22" fill="none" xmlns="http://www.w3.org/2000/svg">
<path id="Vector" d="M0.38519 11.1829C0.327095 8.467 1.29244 5.8286 3.08957 3.79153C3.98448 2.82356 5.07388 2.05567 6.28636 1.53823C7.49883 1.0208 8.80699 0.765489 10.1251 0.789056C11.5086 0.7298 12.8866 0.998334 14.1467 1.57277C15.4068 2.1472 16.5133 3.01127 17.376 4.09455C19.1357 6.60165 20.011 9.62302 19.864 12.6825H5.54367C5.6503 14.0225 6.19683 15.2897 7.09823 16.287C7.55901 16.7333 8.10606 17.0808 8.70588 17.3083C9.30569 17.5357 9.94564 17.6383 10.5865 17.6097C11.451 17.6441 12.3058 17.418 13.0403 16.9607C13.6679 16.5262 14.1428 15.9051 14.3975 15.1856H19.5559C19.1802 16.9893 18.1755 18.6008 16.7214 19.7323C14.9641 21.0419 12.8155 21.7184 10.6249 21.6519C9.22055 21.7095 7.81981 21.4698 6.51455 20.9483C5.20928 20.4268 4.02894 19.6354 3.05092 18.6259C1.25223 16.5717 0.299585 13.9119 0.38519 11.1829ZM5.62062 9.06502H14.3973C14.3606 7.92754 13.9127 6.84195 13.1367 6.00946C12.7526 5.62461 12.2944 5.32175 11.7898 5.11922C11.2852 4.91668 10.7447 4.8187 10.2011 4.83119C9.62465 4.79951 9.04779 4.88502 8.50535 5.08257C7.96291 5.28012 7.46615 5.5856 7.0451 5.98055C6.26472 6.83799 5.76735 7.91496 5.62062 9.06502Z" fill="#231F20"/>
</svg>
