<svg width="20" height="28" viewBox="0 0 20 28" fill="none" xmlns="http://www.w3.org/2000/svg">
<path id="Vector" d="M1.02269 21.6518H6.21866C6.43151 22.3011 6.86784 22.8538 7.45 23.2116C8.28421 23.6741 9.2311 23.8941 10.1838 23.8467C11.3799 23.939 12.565 23.5628 13.489 22.7977C13.8718 22.3885 14.1656 21.9044 14.352 21.376C14.5383 20.8476 14.6131 20.2863 14.5717 19.7275V17.5721H14.457C13.832 18.327 13.0417 18.928 12.1472 19.3285C11.2527 19.729 10.278 19.9182 9.29866 19.8816C7.0516 19.8765 4.89709 18.986 3.30215 17.4031C2.40807 16.4848 1.70791 15.3959 1.24335 14.2014C0.778783 13.0068 0.559304 11.731 0.597992 10.4499C0.494632 7.88725 1.34902 5.37793 2.99467 3.41081C3.77265 2.55941 4.7242 1.88482 5.78513 1.43253C6.84605 0.980254 7.99166 0.760816 9.14462 0.789035C10.2533 0.767739 11.3518 1.00322 12.3543 1.47705C13.255 1.92322 14.0306 2.58635 14.6112 3.40675H14.6864V1.32836H19.7302V19.5734C19.7549 20.782 19.5424 21.9838 19.1046 23.1106C18.7209 24.0515 18.1321 24.8949 17.3812 25.5794C16.4964 26.3721 15.4417 26.9514 14.2981 27.2728C12.9858 27.6482 11.6258 27.8299 10.261 27.8119C8.00015 27.9157 5.75938 27.3463 3.82237 26.1759C3.05557 25.6699 2.40803 25.0032 1.92459 24.222C1.44115 23.4408 1.1334 22.5638 1.02269 21.6518ZM14.8404 10.3353C14.8856 8.98761 14.4755 7.66398 13.6762 6.57789C13.2522 6.05573 12.712 5.63982 12.0988 5.36332C11.4856 5.08682 10.8163 4.95736 10.1443 4.98527C9.53442 4.9691 8.92884 5.09144 8.3731 5.34309C7.81736 5.59473 7.32594 5.96913 6.93578 6.43811C6.08412 7.56788 5.65365 8.95957 5.71874 10.3729C5.64528 11.7811 6.0788 13.169 6.94068 14.285C7.34349 14.7444 7.84348 15.1084 8.4044 15.3506C8.96532 15.5929 9.5731 15.7072 10.1837 15.6855C10.8613 15.7261 11.5389 15.6041 12.1598 15.3296C12.7807 15.0552 13.327 14.6362 13.753 14.1076C14.5186 13.0031 14.9006 11.6779 14.8404 10.3353Z" fill="#231F20"/>
</svg>
