<svg width="18" height="22" viewBox="0 0 18 22" fill="none" xmlns="http://www.w3.org/2000/svg">
<path id="Vector" d="M5.13786 4.02108H5.25343C5.84834 3.02985 6.6801 2.20188 7.67405 1.61152C8.72543 1.04006 9.90905 0.756292 11.1053 0.788902C12.0284 0.765422 12.946 0.938586 13.7971 1.2969C14.6481 1.65521 15.4133 2.19047 16.0416 2.86714C17.3105 4.3405 17.9802 6.23642 17.9183 8.17987V21.0749H12.6828V8.94834C12.7222 8.0001 12.4046 7.07158 11.7927 6.34613C11.4669 6.00577 11.0721 5.73907 10.6348 5.56396C10.1974 5.38885 9.72768 5.30938 9.25707 5.33089C8.71659 5.32292 8.18073 5.43136 7.68589 5.64884C7.19104 5.86632 6.74878 6.18776 6.38917 6.59131C5.61921 7.50786 5.21477 8.67643 5.25343 9.87284V21.0747H0.0189209V1.3282H5.13786V4.02108Z" fill="#231F20"/>
</svg>
