<svg width="22" height="22" viewBox="0 0 22 22" fill="none" xmlns="http://www.w3.org/2000/svg">
<path id="Vector" d="M0.449772 11.2205C0.396709 8.46654 1.42453 5.8014 3.31296 3.79624C5.31468 1.867 7.98647 0.789062 10.7665 0.789062C13.5466 0.789062 16.2184 1.867 18.2201 3.79624C20.0628 5.82991 21.0834 8.47615 21.0834 11.2205C21.0834 13.9648 20.0628 16.611 18.2201 18.6447C16.2184 20.5739 13.5466 21.6519 10.7665 21.6519C7.98647 21.6519 5.31468 20.5739 3.31296 18.6447C1.42452 16.6395 0.396706 13.9744 0.449772 11.2205ZM15.7708 11.2205C15.8478 9.56226 15.3907 7.92313 14.4667 6.54409C14.0233 5.98588 13.4597 5.53498 12.8177 5.22505C12.1758 4.91511 11.4722 4.75414 10.7593 4.75414C10.0465 4.75414 9.34284 4.91511 8.7009 5.22505C8.05896 5.53498 7.4953 5.98588 7.05197 6.54409C6.1351 7.92579 5.68325 9.5641 5.76225 11.2205C5.68163 12.8711 6.13378 14.504 7.05197 15.878C7.49869 16.4311 8.06346 16.8772 8.70495 17.1837C9.34644 17.4901 10.0484 17.6492 10.7593 17.6492C11.4703 17.6492 12.1722 17.4901 12.8137 17.1837C13.4552 16.8772 14.02 16.4311 14.4667 15.878C15.392 14.5066 15.8494 12.873 15.7708 11.2205Z" fill="#231F20"/>
</svg>
