<svg width="12" height="21" viewBox="0 0 12 21" fill="none" xmlns="http://www.w3.org/2000/svg">
<path id="Vector" d="M5.32633 3.48344H5.44096C5.91211 2.5005 6.59784 1.63582 7.44758 0.953105C8.27551 0.362102 9.2755 0.0611804 10.2921 0.0971214C10.5314 0.0940351 10.7707 0.105177 11.0087 0.130488C11.1844 0.149429 11.3571 0.189979 11.523 0.251219V4.83081H11.4083C10.664 4.71079 9.90271 4.74864 9.17395 4.94191C8.44518 5.13519 7.7652 5.47956 7.17815 5.95267C6.59444 6.53923 6.144 7.2447 5.85752 8.02104C5.57104 8.79738 5.45523 9.62634 5.518 10.4515V20.0749H0.283508V0.328266H5.32633V3.48344Z" fill="#231F20"/>
</svg>
