<svg width="18" height="22" viewBox="0 0 18 22" fill="none" xmlns="http://www.w3.org/2000/svg">
<path id="Vector" d="M0.0452881 14.6858H4.89549C4.94617 15.1746 5.097 15.6477 5.3386 16.0756C5.58019 16.5035 5.90737 16.877 6.29972 17.1729C7.16229 17.7329 8.17917 18.0073 9.20636 17.9574C10.138 18.006 11.0646 17.7926 11.8811 17.3415C12.1702 17.173 12.4095 16.931 12.575 16.6402C12.7406 16.3495 12.8264 16.0201 12.8238 15.6855C12.8238 14.7421 12.1984 14.2225 11.2362 13.8714C10.0526 13.5237 8.84707 13.2552 7.62772 13.0678C5.92931 12.8348 4.29019 12.2831 2.79655 11.4418C2.08054 10.9773 1.50151 10.3302 1.11925 9.56715C0.736985 8.80412 0.565339 7.95286 0.622083 7.10131C0.585957 6.17687 0.780306 5.25794 1.1876 4.42727C1.5949 3.5966 2.20237 2.88026 2.95534 2.34272C4.65294 1.24715 6.64826 0.704397 8.66691 0.789106C10.8247 0.675889 12.9561 1.30582 14.7057 2.57387C15.4147 3.15869 15.9962 3.88272 16.4143 4.7012C16.8324 5.51968 17.0782 6.41522 17.1364 7.33246H12.4009C12.3852 6.89742 12.2736 6.47124 12.0739 6.08442C11.8742 5.69761 11.5915 5.35974 11.2459 5.09504C10.448 4.61144 9.52081 4.38486 8.58986 4.44601C7.73409 4.4053 6.88352 4.59979 6.13047 5.00835C5.84397 5.17226 5.60666 5.41001 5.4433 5.69682C5.27994 5.98363 5.19651 6.30901 5.20168 6.63904C5.20168 7.48653 5.85612 7.94883 6.86195 8.27134C7.86777 8.59385 9.22497 8.77662 10.6307 9.06507C12.2943 9.31351 13.8967 9.87164 15.3547 10.7105C16.0996 11.2103 16.6992 11.8979 17.0929 12.7039C17.4866 13.5099 17.6605 14.4055 17.5968 15.3002C17.6173 16.2062 17.4179 17.1036 17.0157 17.9156C16.6136 18.7276 16.0206 19.4301 15.2877 19.963C13.5176 21.1521 11.4136 21.744 9.2832 21.6519C6.91375 21.7768 4.57077 21.1043 2.62827 19.7417C1.86017 19.1337 1.23194 18.3674 0.786248 17.495C0.340557 16.6226 0.0878418 15.6645 0.0452881 14.6858Z" fill="#231F20"/>
</svg>
