<svg width="12" height="27" viewBox="0 0 12 27" fill="none" xmlns="http://www.w3.org/2000/svg">
<path id="Vector" d="M0.608643 6.32845H3.34099V0.168457H8.46086V6.32845H11.8481V9.7918H8.46086V20.2627C8.43604 20.5423 8.47227 20.8239 8.56703 21.0881C8.66179 21.3523 8.81283 21.5928 9.00968 21.7929C9.41199 22.1064 9.91569 22.2608 10.4246 22.2265C10.7516 22.2265 11.1364 22.2166 11.4394 22.2067C11.7424 22.1969 11.9637 22.187 11.9637 22.187V26.0375C11.9637 26.0375 11.6654 26.0563 11.1072 26.0751C10.549 26.0939 9.73118 26.1127 8.69198 26.1127C7.41278 26.1636 6.14807 25.8267 5.06376 25.1461C4.48165 24.7149 4.01832 24.1432 3.71705 23.4845C3.41578 22.8257 3.2864 22.1013 3.34099 21.379V9.7918H0.608643V6.32845Z" fill="#231F20"/>
</svg>
