<svg width="23" height="49" viewBox="0 0 23 49" fill="none" xmlns="http://www.w3.org/2000/svg">
<path id="Vector" d="M16.6232 5.16215C17.4505 2.99757 20.1826 2.99757 22.3761 2.99757H22.784V0.0134277C22.784 0.0134277 14.233 0.202009 11.6176 0.202009C8.92325 0.202009 0.932495 0.0134277 0.932495 0.0134277V2.99757H1.34045C3.53379 2.99757 6.26603 2.99757 7.09138 5.15838C7.6755 8.23579 7.90596 11.3699 7.77825 14.4996V33.5631C7.90575 36.6922 7.67597 39.8255 7.09336 42.9025C6.26603 45.0652 3.53379 45.0652 1.34045 45.0652H0.932495V48.0513C0.932303 48.0439 7.84514 47.7569 11.6299 47.7569C15.9865 47.7569 22.784 48.0513 22.784 48.0513V45.0652H22.3761C20.1826 45.0652 17.4505 45.0652 16.625 42.9064C16.0409 39.8283 15.8104 36.6935 15.9381 33.5631V14.4996C15.8106 11.3712 16.0405 8.23846 16.6232 5.16215Z" fill="#231F20"/>
</svg>
