<svg width="49" height="50" viewBox="0 0 49 50" fill="none" xmlns="http://www.w3.org/2000/svg">
<path id="Vector" d="M48.3025 46.0671C46.9804 46.0374 45.6832 45.7013 44.513 45.0853C43.3428 44.4693 42.3315 43.5902 41.5586 42.5172L27.3745 26.2338C34.8437 25.2603 39.4479 20.3212 39.4479 13.1906C39.5998 11.1965 39.1793 9.20039 38.2359 7.43696C37.2925 5.67352 35.8653 4.21598 34.1222 3.23562C30.5593 1.55654 26.6334 0.794013 22.7011 1.01727C21.2041 1.05383 17.6043 1.17782 13.6388 1.17782C9.5263 1.17782 0.982277 1.0115 0.982277 1.0115V3.99566H1.57484C3.83937 3.98207 6.38883 3.99179 7.06426 6.14294C7.57534 9.05743 7.7836 12.017 7.68571 14.9743V34.5612C7.73139 37.1285 7.63525 39.6964 7.39772 42.2531C7.3373 42.8178 7.22504 43.3757 7.06237 43.9198C6.36963 46.0633 3.60861 46.0633 1.38826 46.0633H0.982239V49.0474C0.982239 49.0474 7.6326 48.755 12.0783 48.755C15.9002 48.755 22.5473 49.04 22.5471 49.0474V46.0633H21.9563C19.7282 46.0729 17.2019 46.0671 16.465 43.916C16.303 43.373 16.191 42.8164 16.1303 42.2531C15.9016 39.8708 15.8059 37.4776 15.8436 35.0846V27.0767C18.497 27.0998 18.7278 27.3788 20.0939 29.0277C20.3459 29.3317 20.6346 29.6781 20.9675 30.0628L32.8061 44.7529L36.2868 49.0474C36.2868 49.0474 40.1033 48.8864 41.9582 48.8864C44.6552 48.8864 48.647 49.0533 48.647 49.0533V46.1209L48.3025 46.0671ZM15.8436 23.8134C15.8436 23.8134 15.8417 6.46812 15.8398 6.36608C15.8282 5.67345 15.809 4.72681 16.3863 4.45941C17.8748 4.35938 19.3679 4.34717 20.8578 4.42285C26.9417 4.42285 30.4339 7.9843 30.4339 14.1895C30.4339 18.7128 29.2313 21.3084 26.5357 22.6091C24.0229 23.823 15.8436 23.8134 15.8436 23.8134Z" fill="#231F20"/>
</svg>
