<svg width="46" height="49" viewBox="0 0 46 49" fill="none" xmlns="http://www.w3.org/2000/svg">
<path id="Vector" d="M0.269897 0.0605469V12.5208H3.2329L3.24637 12.1282C3.5177 4.02024 6.61922 3.6778 13.6074 3.6778C13.848 3.6778 14.0885 3.6778 14.3251 3.67587C16.0625 3.66433 17.7018 3.65471 18.3463 4.2955C18.4586 4.41599 18.5451 4.55822 18.6004 4.71342C18.6557 4.86861 18.6786 5.03349 18.6677 5.19787V37.9529C18.6677 42.813 17.9865 44.8218 11.1426 45.1047L10.752 45.1201V48.0888C10.752 48.0888 18.731 47.7963 23.3477 47.7963C26.8723 47.7963 34.7411 48.0888 34.7411 48.0888V45.12L34.3506 45.1046C27.5047 44.8217 26.8256 42.813 26.8256 37.9528V5.19774C26.8189 5.04807 26.8432 4.89863 26.8972 4.75887C26.9512 4.61911 27.0336 4.49208 27.1392 4.3858C27.9282 3.61031 30.1024 3.64314 31.8493 3.66816C32.1803 3.67393 32.5055 3.67778 32.8134 3.67778C39.6476 3.67778 41.8506 5.65563 42.2489 12.1398L42.272 12.5208H45.214V0.0605469C45.214 0.0605469 27.9676 0.173002 22.7419 0.173002C17.5163 0.173002 0.269897 0.0605469 0.269897 0.0605469Z" fill="#231F20"/>
</svg>
