<svg width="12" height="13" viewBox="0 0 12 13" fill="none" xmlns="http://www.w3.org/2000/svg">
<path id="Vector" d="M4.79462 0.0371094H6.54507L8.8316 6.22999L11.1181 12.4229H9.42027L8.76205 10.5343L8.10395 8.64569H3.16639L2.49973 10.5343L1.83308 12.4229H0.238586L2.51664 6.22999L4.79462 0.0371094ZM3.6173 7.38095H7.67074L6.96032 5.30271L6.24997 3.22432C6.12874 2.87762 5.99019 2.44023 5.88189 2.08952C5.77359 1.73882 5.69562 1.47479 5.69562 1.47479H5.66084C5.66084 1.47479 5.57864 1.73457 5.46612 2.08317C5.35361 2.43178 5.21079 2.86915 5.08958 3.22428L4.35348 5.30271L3.6173 7.38095Z" fill="#231F20"/>
</svg>
