<svg width="10" height="10" viewBox="0 0 10 10" fill="none" xmlns="http://www.w3.org/2000/svg">
<path id="Vector" d="M6.74217 8.17505H6.72431C6.42179 8.57184 6.04088 8.90214 5.60525 9.14542C5.03391 9.45234 4.39331 9.60738 3.74485 9.5957C2.9805 9.62845 2.2259 9.4144 1.59259 8.9852C1.30486 8.76565 1.07463 8.47965 0.921568 8.15169C0.768507 7.82372 0.69718 7.46356 0.713711 7.10201C0.68082 6.6814 0.767677 6.26007 0.964261 5.88677C1.16084 5.51347 1.45912 5.20347 1.82455 4.99262C2.69836 4.56479 3.6425 4.29897 4.61116 4.20804C5.14002 4.15869 5.66034 4.04163 6.15938 3.85974C6.34594 3.78868 6.50484 3.65971 6.61277 3.49175C6.72069 3.3238 6.77196 3.12569 6.75908 2.92646C6.76984 2.70466 6.72799 2.48346 6.63693 2.28093C6.54587 2.0784 6.40819 1.90028 6.23514 1.76113C5.79924 1.46289 5.27649 1.31818 4.74928 1.34981C4.16126 1.30467 3.57697 1.47565 3.10604 1.83065C2.90877 2.02473 2.75428 2.25792 2.65248 2.51524C2.55068 2.77257 2.50382 3.04834 2.51492 3.32485H1.16378C1.1609 2.92078 1.24044 2.52037 1.39753 2.14808C1.55462 1.77578 1.78595 1.43942 2.07742 1.15956C2.82069 0.544895 3.76963 0.235393 4.73237 0.293623C5.56827 0.241827 6.39874 0.459695 7.10156 0.91517C7.42646 1.18126 7.68178 1.52235 7.84555 1.90905C8.00931 2.29576 8.07661 2.71648 8.04163 3.13498V7.3951C8.01152 7.67971 8.07617 7.96631 8.22555 8.21044C8.36626 8.37933 8.60446 8.43524 8.99438 8.34785H9.04606V9.37014C8.94596 9.41118 8.84239 9.44317 8.73658 9.46573C8.58767 9.49601 8.436 9.51058 8.28404 9.5092C7.90211 9.53499 7.52392 9.42028 7.22066 9.18667C6.94357 8.91879 6.77348 8.55919 6.74217 8.17505ZM6.77693 6.11357V4.58953C6.49036 4.75653 6.18397 4.8869 5.86493 4.97759C5.49309 5.08984 5.1149 5.17988 4.73237 5.24724C4.11264 5.32591 3.50867 5.49933 2.94161 5.76143C2.70479 5.88337 2.50875 6.07181 2.37753 6.30362C2.24632 6.53543 2.18564 6.80051 2.20297 7.06631C2.18367 7.29687 2.22774 7.52833 2.33043 7.73566C2.43313 7.94299 2.59054 8.11831 2.78564 8.24267C3.17654 8.44843 3.61562 8.54515 4.0568 8.52268C4.43824 8.53796 4.81867 8.47337 5.17368 8.33305C5.5287 8.19272 5.85048 7.97976 6.11839 7.70781C6.52965 7.27752 6.76464 6.70867 6.77693 6.11357Z" fill="#231F20"/>
</svg>
