<svg width="9" height="13" viewBox="0 0 9 13" fill="none" xmlns="http://www.w3.org/2000/svg">
<path id="Vector" d="M0.724884 7.97107C0.667344 6.71341 1.07095 5.47801 1.85992 4.49691C2.20833 4.09956 2.63915 3.78289 3.12238 3.56894C3.60561 3.35499 4.12964 3.2489 4.65804 3.25805C5.23903 3.25266 5.81165 3.39663 6.32101 3.67616C6.78013 3.93272 7.17201 4.29429 7.46461 4.73133H7.49844V0.0371094H8.9022V12.4229H7.49844V11.3311H7.46473C7.15079 11.7683 6.73314 12.1206 6.24933 12.3564C5.76552 12.5923 5.2307 12.7042 4.69292 12.6822C4.14457 12.7012 3.59899 12.5962 3.09687 12.375C2.59474 12.1538 2.14901 11.8222 1.79285 11.4048C1.04453 10.4212 0.666431 9.20557 0.724884 7.97107ZM7.58582 7.98799C7.62748 7.08143 7.36937 6.18638 6.85141 5.4412C6.60102 5.11976 6.27775 4.86252 5.90829 4.69072C5.53882 4.51893 5.13378 4.43752 4.72663 4.45321C4.34684 4.44378 3.97099 4.53209 3.63514 4.70967C3.29929 4.88725 3.01471 5.14813 2.80868 5.46731C2.35111 6.22612 2.12672 7.1027 2.16341 7.98802C2.12405 8.87318 2.34948 9.74997 2.81091 10.5064C3.0218 10.8233 3.31002 11.0813 3.64835 11.2558C3.98668 11.4304 4.36395 11.5158 4.74448 11.504C5.15992 11.5284 5.57499 11.4502 5.95304 11.2762C6.33108 11.1022 6.66046 10.8378 6.91213 10.5064C7.39623 9.75877 7.632 8.87744 7.58582 7.98799Z" fill="#231F20"/>
</svg>
