<svg width="11" height="13" viewBox="0 0 11 13" fill="none" xmlns="http://www.w3.org/2000/svg">
<path id="Vector" d="M0.765625 0.0370601H5.27005C6.0466 -0.00969888 6.82356 0.12168 7.54156 0.421157C8.25955 0.720634 8.89958 1.18028 9.41274 1.76498C10.3721 3.06522 10.8491 4.65874 10.762 6.27224C10.8487 7.88245 10.3477 9.46936 9.35213 10.7379C8.81853 11.3106 8.16519 11.7585 7.43864 12.0497C6.7121 12.341 5.93026 12.4684 5.14885 12.4228H0.765625V0.0370601ZM5.09723 11.0548C5.68395 11.1004 6.27311 11.0064 6.81651 10.7804C7.35992 10.5545 7.8421 10.2032 8.22359 9.75508C8.91582 8.73096 9.24788 7.50574 9.16753 6.27224C9.24668 5.03149 8.93798 3.79684 8.28419 2.73935C7.92534 2.27751 7.45723 1.91221 6.92204 1.67634C6.38685 1.44047 5.80139 1.34145 5.2184 1.3882H2.32541V11.0548H5.09723Z" fill="#231F20"/>
</svg>
