<svg width="10" height="10" viewBox="0 0 10 10" fill="none" xmlns="http://www.w3.org/2000/svg">
<path id="Vector" d="M0.900664 4.95414C0.876128 3.73946 1.29061 2.55669 2.068 1.62303C2.44908 1.18204 2.92208 0.829817 3.45378 0.591085C3.98548 0.352353 4.56301 0.232903 5.14579 0.241121C5.73216 0.217223 6.31587 0.332492 6.84913 0.577497C7.3824 0.822502 7.85009 1.19028 8.21393 1.65074C8.95778 2.71142 9.32874 3.98889 9.26871 5.283H2.33919C2.35589 6.1117 2.63981 6.91284 3.14865 7.56714C3.40435 7.86735 3.72452 8.10598 4.08528 8.26524C4.44604 8.42451 4.83811 8.50029 5.23223 8.48695C5.80442 8.50996 6.3687 8.34739 6.84094 8.02349C7.28266 7.68226 7.59001 7.1963 7.70901 6.65097H9.07798C8.91685 7.5267 8.44929 8.3165 7.75902 8.87899C7.02975 9.41899 6.13914 9.69611 5.23223 9.6652C4.63132 9.6836 4.03371 9.56934 3.48197 9.33053C2.93024 9.09173 2.43792 8.73426 2.04004 8.28356C1.27227 7.34686 0.867763 6.16484 0.900664 4.95414ZM2.37398 4.22501H7.7616C7.76377 3.45936 7.5038 2.71604 7.02487 2.11867C6.78651 1.86146 6.49484 1.6594 6.17028 1.5266C5.84571 1.39381 5.49609 1.33348 5.14579 1.34984C4.78291 1.33817 4.42188 1.4062 4.08813 1.54914C3.75438 1.69208 3.45602 1.90645 3.21407 2.17715C2.73542 2.76035 2.44282 3.47368 2.37398 4.22501Z" fill="#231F20"/>
</svg>
