<svg width="9" height="13" viewBox="0 0 9 13" fill="none" xmlns="http://www.w3.org/2000/svg">
<path id="Vector" d="M0.99555 9.9246H2.29407C2.32127 10.1508 2.40553 10.3663 2.53896 10.551C2.67238 10.7357 2.85058 10.8834 3.05679 10.9802C3.59067 11.2147 4.1716 11.3222 4.75403 11.2945C5.43519 11.3419 6.11035 11.1402 6.65386 10.7269C6.88546 10.5041 7.06515 10.233 7.18012 9.93298C7.2951 9.63292 7.34256 9.3112 7.31913 8.99072V7.72602H7.28342C6.9902 8.13161 6.61941 8.47499 6.19255 8.73627C5.71582 8.99835 5.17752 9.12774 4.63376 9.11095C4.09983 9.1209 3.57016 9.01429 3.08166 8.79854C2.59316 8.5828 2.15761 8.2631 1.80534 7.86176C1.06783 6.96723 0.68115 5.83483 0.717517 4.67605C0.669425 3.48636 1.07533 2.32287 1.85302 1.42128C2.1959 1.04988 2.61281 0.754481 3.07687 0.554128C3.54094 0.353774 4.04187 0.252916 4.54731 0.25806C5.11103 0.243074 5.66989 0.365874 6.1754 0.615805C6.61907 0.853273 6.99911 1.19399 7.28342 1.6092H7.31913V0.466615H8.721V8.93801C8.75214 9.42716 8.67143 9.91698 8.48505 10.3703C8.29867 10.8236 8.0115 11.2285 7.64531 11.5543C6.82158 12.1617 5.81141 12.462 4.78964 12.4032C3.84154 12.4522 2.89986 12.2225 2.08081 11.7425C1.7726 11.543 1.51442 11.2753 1.32623 10.9601C1.13804 10.6449 1.02489 10.2906 0.99555 9.9246ZM7.42239 4.60647C7.47593 3.78138 7.24531 2.96285 6.7689 2.28707C6.51097 1.99415 6.18874 1.76492 5.82743 1.61731C5.46612 1.4697 5.07554 1.40774 4.68629 1.43627C4.32073 1.41984 3.95673 1.49341 3.62625 1.65052C3.29576 1.80763 3.0089 2.04348 2.79086 2.33736C2.33635 3.03602 2.11444 3.86052 2.15686 4.69292C2.11354 5.52718 2.3414 6.35306 2.80636 7.04709C3.02792 7.33645 3.31604 7.56806 3.64627 7.72223C3.9765 7.8764 4.33907 7.94859 4.70317 7.93265C5.1103 7.96593 5.51923 7.89585 5.89205 7.72893C6.26487 7.562 6.58949 7.30363 6.83582 6.97777C7.26761 6.26524 7.4722 5.43813 7.42239 4.60647Z" fill="#231F20"/>
</svg>
