<svg width="8" height="10" viewBox="0 0 8 10" fill="none" xmlns="http://www.w3.org/2000/svg">
<path id="Vector" d="M1.48725 1.64465H1.52108C1.83052 1.22257 2.23201 0.876509 2.69511 0.632698C3.21254 0.375201 3.78456 0.246586 4.36242 0.257807C5.16669 0.212943 5.95743 0.478948 6.57106 1.00079C6.84709 1.2804 7.06142 1.6148 7.20018 1.98239C7.33894 2.34997 7.39905 2.74257 7.37665 3.13484V9.42261H5.97383V3.25513C5.98706 3.00522 5.94569 2.75544 5.85259 2.52315C5.75949 2.29086 5.6169 2.08164 5.43474 1.91004C5.01397 1.57456 4.4844 1.40581 3.94712 1.43601C3.6192 1.42318 3.29217 1.47859 2.98679 1.59874C2.68141 1.71889 2.40433 1.90117 2.17307 2.13401C1.94182 2.36686 1.76146 2.6452 1.6434 2.95139C1.52535 3.25759 1.47217 3.58497 1.48725 3.91279V9.42259H0.0834961V0.4664H1.48725V1.64465Z" fill="#231F20"/>
</svg>
