<svg width="5" height="10" viewBox="0 0 5 10" fill="none" xmlns="http://www.w3.org/2000/svg">
<path id="Vector" d="M1.64368 1.95656H1.67751C1.95299 1.50714 2.32438 1.12413 2.76509 0.834924C3.23508 0.527511 3.78437 0.363538 4.34597 0.36301C4.45256 0.361283 4.55907 0.369853 4.66402 0.388603C4.75079 0.406076 4.83562 0.432124 4.91724 0.466364V1.81751H4.86556C4.77277 1.78511 4.67702 1.7619 4.57969 1.74823C4.46753 1.73491 4.3546 1.72917 4.24167 1.73107C3.56295 1.72496 2.90929 1.98718 2.42296 2.46067C2.16598 2.72288 1.96451 3.03422 1.83061 3.37607C1.6967 3.71793 1.63311 4.08327 1.64363 4.45027V9.42265H0.239868V0.466364H1.64363L1.64368 1.95656Z" fill="#231F20"/>
</svg>
