<svg width="8" height="10" viewBox="0 0 8 10" fill="none" xmlns="http://www.w3.org/2000/svg">
<path id="Vector" d="M0.0635986 6.51203H1.50118C1.51604 6.82259 1.60041 7.12586 1.74809 7.39947C1.89577 7.67308 2.10299 7.91004 2.35445 8.09289C2.87184 8.39537 3.46701 8.53838 4.06534 8.50398C4.6283 8.54331 5.18832 8.39405 5.65702 8.07975C5.8147 7.95571 5.94093 7.79625 6.02549 7.61432C6.11005 7.43238 6.15056 7.23308 6.14373 7.03257C6.16126 6.82281 6.11869 6.6124 6.021 6.42595C5.9233 6.2395 5.77451 6.08473 5.59207 5.97975C5.02925 5.70113 4.42629 5.51234 3.80507 5.42022C2.99096 5.30388 2.202 5.05237 1.47076 4.67606C1.13938 4.47808 0.869561 4.19188 0.691426 3.84942C0.51329 3.50696 0.433852 3.12173 0.461988 2.73674C0.450352 2.39422 0.51956 2.05378 0.66403 1.743C0.808501 1.43223 1.02417 1.15986 1.29353 0.94797C2.03452 0.496501 2.88816 0.264016 3.75575 0.277403C4.62333 0.290789 5.46941 0.549501 6.19611 1.02362C6.78689 1.55258 7.14773 2.29135 7.20172 3.08249H5.76413C5.75386 2.83767 5.69469 2.59737 5.5901 2.37577C5.48551 2.15417 5.33763 1.95575 5.15516 1.7922C4.71428 1.4887 4.18282 1.34521 3.6491 1.38559C3.15969 1.35148 2.67307 1.4834 2.26789 1.76002C2.13217 1.86817 2.02354 2.00647 1.95063 2.16395C1.87772 2.32143 1.84255 2.49374 1.84789 2.66719C1.8377 2.87556 1.89243 3.08196 2.00451 3.25792C2.1166 3.43387 2.28052 3.57071 2.47366 3.64955C3.04572 3.88344 3.64385 4.04764 4.25514 4.1386C5.07339 4.25028 5.86368 4.5134 6.58558 4.91448C6.91609 5.13812 7.181 5.44582 7.35305 5.80589C7.5251 6.16596 7.59805 6.56539 7.5644 6.96303C7.57966 7.35794 7.49693 7.75049 7.32357 8.10565C7.15021 8.4608 6.89163 8.76752 6.5709 8.99843C5.81592 9.48519 4.92788 9.72423 4.03058 9.68223C3.01194 9.74151 2.004 9.44799 1.17643 8.85111C0.836117 8.56206 0.560966 8.20412 0.369144 7.80092C0.177321 7.39773 0.0731737 6.95843 0.0635986 6.51203Z" fill="#231F20"/>
</svg>
