<svg width="6" height="13" viewBox="0 0 6 13" fill="none" xmlns="http://www.w3.org/2000/svg">
<path id="Vector" d="M0.608765 3.46653H1.90729V0.64209H3.31105V3.46653H5.04366V4.60908H3.31099V10.4308C3.29907 10.5498 3.3141 10.67 3.35494 10.7824C3.39579 10.8948 3.4614 10.9965 3.54694 11.0801C3.74056 11.2166 3.97598 11.2808 4.21209 11.2614C4.35231 11.2598 4.49213 11.2461 4.62998 11.2203C4.74034 11.2011 4.84931 11.1747 4.95622 11.1412H5.00887V12.3532C4.84396 12.388 4.66635 12.4185 4.478 12.4404C4.28027 12.4635 4.08137 12.4752 3.88229 12.4754C3.3798 12.5052 2.88161 12.3673 2.466 12.0833C2.27353 11.9199 2.12256 11.7133 2.02544 11.4802C1.92832 11.2472 1.88782 10.9945 1.90729 10.7428V4.60908H0.608765V3.46653Z" fill="#231F20"/>
</svg>
